<svg width="311" height="17" viewBox="0 0 311 17" fill="none" xmlns="http://www.w3.org/2000/svg">
<path d="M307.809 10.4978V6.89781C307.809 4.49781 307.137 2.81781 304.689 2.81781H292.665V13.7378H303.849C306.465 13.7378 307.809 12.7778 307.809 10.4978ZM305.241 16.4018H289.761V0.153809H305.241C308.889 0.153809 310.713 2.40981 310.713 5.96181V10.7378C310.713 14.1938 308.913 16.4018 305.241 16.4018Z" fill="#F0F0F0"/>
<path d="M282.85 16.4018H279.97C279.706 16.2098 279.562 15.9218 279.562 15.3458V12.3458C279.562 10.9538 278.65 10.4258 277.306 10.4258H264.274V16.4018H261.37V0.153809H278.506C281.218 0.153809 282.202 1.44981 282.202 3.82581V5.84181C282.202 8.60181 280.69 9.03381 279.706 9.15381C280.786 9.24981 282.442 9.77781 282.442 12.3458V15.3458C282.442 15.9218 282.61 16.2098 282.85 16.4018ZM279.322 6.29781V4.49781C279.322 3.24981 278.818 2.57781 277.474 2.57781H264.274V8.19381H277.234C278.482 8.19381 279.322 7.73781 279.322 6.29781Z" fill="#F0F0F0"/>
<path d="M253.718 16.4018H236.486C233.774 16.4018 232.79 15.1058 232.79 12.7298V10.6418C232.79 8.26581 233.774 6.96981 236.486 6.96981H250.838V5.72181C250.838 3.77781 249.998 2.81781 248.246 2.81781H233.198V0.153809H248.846C252.182 0.153809 253.718 1.90581 253.718 5.43381V16.4018ZM250.838 13.9778V9.20181H237.518C236.174 9.20181 235.67 9.87381 235.67 11.1218V12.0338C235.67 13.3058 236.174 13.9778 237.518 13.9778H250.838Z" fill="#F0F0F0"/>
<path d="M225.127 16.4018H209.623C206.335 16.4018 204.751 14.6258 204.751 11.1218V0.153809H207.679V10.8338C207.679 12.7538 208.519 13.7378 210.247 13.7378H222.271V0.153809H225.127V16.4018Z" fill="#F0F0F0"/>
<path d="M197.118 16.4018H180.078C177.342 16.4018 176.334 15.1058 176.334 12.1058V5.43381C176.334 1.90581 177.894 0.153809 181.254 0.153809H196.734V2.81781H181.854C180.054 2.81781 179.238 3.77781 179.238 5.72181V11.7218C179.238 13.2818 179.766 13.9778 181.11 13.9778H194.238V7.54581H197.118V16.4018Z" fill="#F0F0F0"/>
<path d="M157.757 16.4018H145.037C141.725 16.4018 140.165 14.6498 140.165 11.1218V0.153809H143.069V10.8338C143.069 12.7538 143.885 13.7378 145.637 13.7378H157.757V16.4018Z" fill="#F0F0F0"/>
<path d="M132.198 16.4018H116.574C113.214 16.4018 111.654 14.6498 111.654 11.1218V3.82581C111.654 1.44981 112.662 0.153809 115.398 0.153809H128.91C131.646 0.153809 132.606 1.44981 132.606 3.82581V6.00981C132.606 8.38581 131.646 9.68181 128.91 9.68181H114.558V10.8338C114.558 12.7538 115.374 13.7378 117.174 13.7378H132.198V16.4018ZM129.726 5.48181V4.49781C129.726 3.24981 129.222 2.57781 127.878 2.57781H116.43C115.086 2.57781 114.558 3.24981 114.558 4.49781V7.42581H127.878C129.222 7.42581 129.726 6.72981 129.726 5.48181Z" fill="#F0F0F0"/>
<path d="M95.6581 14.0498L102.93 0.153809H106.266L97.5301 16.4018H90.8581L81.9541 0.153809H85.4101L92.8261 14.0498H95.6581Z" fill="#F0F0F0"/>
<path d="M76.4602 16.4018H59.2282C56.5162 16.4018 55.5322 15.1058 55.5322 12.7298V10.6418C55.5322 8.26581 56.5162 6.96981 59.2282 6.96981H73.5802V5.72181C73.5802 3.77781 72.7402 2.81781 70.9882 2.81781H55.9402V0.153809H71.5882C74.9242 0.153809 76.4602 1.90581 76.4602 5.43381V16.4018ZM73.5802 13.9778V9.20181H60.2602C58.9162 9.20181 58.4122 9.87381 58.4122 11.1218V12.0338C58.4122 13.3058 58.9162 13.9778 60.2602 13.9778H73.5802Z" fill="#F0F0F0"/>
<path d="M48.7173 16.4018H45.8373C45.5733 16.2098 45.4293 15.9218 45.4293 15.3458V12.3458C45.4293 10.9538 44.5173 10.4258 43.1733 10.4258H30.1413V16.4018H27.2373V0.153809H44.3733C47.0853 0.153809 48.0693 1.44981 48.0693 3.82581V5.84181C48.0693 8.60181 46.5573 9.03381 45.5733 9.15381C46.6533 9.24981 48.3093 9.77781 48.3093 12.3458V15.3458C48.3093 15.9218 48.4773 16.2098 48.7173 16.4018ZM45.1893 6.29781V4.49781C45.1893 3.24981 44.6853 2.57781 43.3413 2.57781H30.1413V8.19381H43.1013C44.3493 8.19381 45.1893 7.73781 45.1893 6.29781Z" fill="#F0F0F0"/>
<path d="M11.592 16.4018H8.712V2.81781H0V0.153809H20.328V2.81781H11.592V16.4018Z" fill="#F0F0F0"/>
</svg>
